<svg width="28" height="57" viewBox="0 0 28 57" fill="none" xmlns="http://www.w3.org/2000/svg">
<path d="M25.8623 51.8557L24.4257 51.214C21.979 50.1225 19.9739 48.2207 18.7429 45.828L18.2429 44.8541C18.1643 44.7007 18.0906 44.5423 18.017 44.3838C16.6033 44.3838 15.1871 44.3812 13.7734 44.3812C10.9865 44.3812 8.20224 44.3914 5.41542 44.3787C3.98139 44.371 3.81642 44.1742 3.8088 42.6123C3.80119 40.9559 3.91794 40.7897 5.33166 40.7846C9.24794 40.7769 13.1642 40.7769 17.0805 40.7795C16.9409 39.3838 17.0272 37.9037 17.3698 36.4364C16.1693 36.4364 14.9713 36.4339 13.7708 36.4339C10.9434 36.4339 8.11341 36.3904 5.28597 36.4518C3.83165 36.4824 3.81642 35.6287 3.78596 34.5499C3.75297 33.3996 4.05246 32.8219 5.32912 32.8321C9.81647 32.8628 14.3038 32.85 18.7912 32.8475C19.4891 31.6486 20.4028 30.5162 21.5653 29.5141C22.012 29.1307 22.4815 28.7779 22.9714 28.461C22.8191 28.4916 22.6465 28.5095 22.4409 28.5044C19.5704 28.4482 16.6972 28.4865 13.8267 28.4865C10.9561 28.4865 8.08295 28.4456 5.21237 28.507C3.92302 28.5351 3.77835 27.8449 3.79611 26.8147C3.81388 25.8101 3.78596 24.964 5.20222 24.9743C10.9459 25.0177 16.6871 25.0152 22.4308 24.9743C23.8166 24.964 23.8623 25.7641 23.8623 26.7969C23.8623 27.326 23.8267 27.7708 23.611 28.075C24.8572 27.3669 26.2151 26.871 27.6313 26.6077C27.6288 22.4998 27.6237 18.3894 27.6186 14.2815C26.8471 13.4814 26.1009 10.9328 25.7735 9.69563C25.6567 9.25595 25.7024 8.78816 25.908 8.38172C26.2963 7.6174 26.9689 6.36229 27.4537 5.86383C27.507 5.81014 27.5577 5.75646 27.611 5.70278C27.611 5.69767 27.611 5.69256 27.611 5.68744C27.611 5.13019 27.4105 4.50646 27.1161 4.02845C26.4968 3.01873 25.6922 2.12149 25.0831 1.10667C24.6059 0.314233 24.0196 -0.00274024 23.1186 0.0151534C21.1313 0.053497 19.1389 -0.0283026 17.1541 0.0483845L10.6236 0.0458283C8.76316 -0.0180777 6.89766 0.102066 5.03978 0.00748471C3.74281 -0.0589775 2.85702 0.306564 2.28087 1.531C1.923 2.2902 1.31894 2.92415 0.902689 3.66035C0.544819 4.29174 0.0422763 4.98448 0.0397382 5.6491C-0.0084855 22.0525 -0.00340932 38.4533 0.00674305 54.8567C0.00674305 56.4441 0.572737 56.9911 2.17935 56.9937C9.92307 57.0039 17.6642 57.0014 25.408 56.9886C27.0933 56.986 27.6288 56.4646 27.6288 54.7723C27.6288 53.9671 27.6288 53.1644 27.6288 52.3592C27.0222 52.2365 26.4334 52.0704 25.8623 51.8557ZM3.81388 9.58826C3.82403 8.03407 4.25551 7.56372 5.75044 7.55861C11.121 7.53816 16.4916 7.53816 21.8623 7.5535C23.3572 7.55861 23.8267 8.04685 23.8369 9.56526C23.8597 12.2467 23.8572 14.9282 23.8369 17.6123C23.8242 19.1972 23.3673 19.6317 21.7683 19.6394C19.1033 19.6496 16.4409 19.6419 13.7759 19.6419C13.7759 19.6394 13.7759 19.6394 13.7759 19.6368C11.1109 19.6368 8.44844 19.6471 5.78344 19.6343C4.29104 19.6266 3.82403 19.1588 3.81388 17.6404C3.79611 14.9538 3.79865 12.2723 3.81388 9.58826ZM13.6921 54.5806C11.6261 54.5193 10.0398 52.7938 10.1363 50.7105C10.2276 48.7089 11.9155 47.1803 13.9586 47.2519C15.9942 47.3209 17.5576 48.9594 17.517 50.9789C17.4739 53.0417 15.7734 54.6445 13.6921 54.5806Z" fill="#001E42"/>
</svg>
