<svg width="126" height="5" viewBox="0 0 126 5" fill="none" xmlns="http://www.w3.org/2000/svg">
<path d="M3.00943 0.890362L2.51226 1.43112C2.43306 1.32209 2.31867 1.23487 2.16908 1.1651C2.01948 1.09532 1.87429 1.0648 1.7247 1.0648C1.52671 1.0648 1.35072 1.11277 1.19673 1.21307C1.04274 1.30901 0.967945 1.45728 0.967945 1.64916C0.967945 1.7451 0.985544 1.82796 1.02074 1.89337C1.05594 1.95879 1.11754 2.01984 1.20113 2.07217C1.28913 2.1245 1.36832 2.16375 1.44752 2.19428C1.52231 2.22044 1.63671 2.25969 1.7863 2.30766C1.92709 2.35127 2.04588 2.39052 2.13388 2.42104C2.22627 2.45157 2.33187 2.5039 2.45946 2.57368C2.58705 2.64345 2.68825 2.71759 2.76304 2.80044C2.83784 2.8833 2.90383 2.9836 2.95663 3.11443C3.00943 3.24526 3.04023 3.38917 3.04023 3.55052C3.04023 3.98661 2.89064 4.3224 2.59585 4.55789C2.29667 4.79338 1.92709 4.91113 1.47832 4.91113C1.19233 4.91113 0.915148 4.8588 0.651163 4.75414C0.382778 4.64075 0.16719 4.49248 0 4.29624L0.545569 3.79037C0.651163 3.92992 0.791955 4.04331 0.963545 4.13053C1.13954 4.21774 1.31113 4.26135 1.48272 4.26135C1.6895 4.26135 1.86989 4.20902 2.02388 4.10436C2.17788 3.9997 2.25707 3.8427 2.25707 3.62902C2.25707 3.55488 2.24827 3.49383 2.22627 3.43278C2.21307 3.37608 2.17348 3.32375 2.12068 3.27578C2.06788 3.22781 2.01948 3.18857 1.97989 3.15804C1.93589 3.12751 1.86549 3.09699 1.7599 3.05774C1.65871 3.01849 1.58391 2.99233 1.53991 2.97488C1.49591 2.95744 1.40792 2.93127 1.27153 2.89202C1.11754 2.84405 0.985544 2.79608 0.87555 2.74375C0.765556 2.69142 0.655563 2.62165 0.536769 2.53007C0.422376 2.43849 0.334381 2.3251 0.272784 2.18119C0.211188 2.03728 0.18039 1.87157 0.18039 1.68405C0.18039 1.27848 0.334381 0.968857 0.642363 0.755172C0.950346 0.541487 1.31992 0.432465 1.7511 0.432465C1.97549 0.432465 2.20427 0.471711 2.42866 0.550208C2.65745 0.628705 2.85104 0.742091 3.00943 0.890362Z" fill="#00FEFF"/>
<path d="M5.01572 4.79774V0.541481H5.78127V4.79774H5.01572Z" fill="#00FEFF"/>
<path d="M7.93715 4.79774V0.541481H9.12948L10.247 3.5636H10.2646L11.369 0.541481H12.5701V4.79774H11.8133V1.37878H11.8001L10.4978 4.79774H9.96543L8.68071 1.37878H8.66751V4.79774H7.93715Z" fill="#00FEFF"/>
<path d="M14.7304 4.79774V0.541481H16.1295C17.2074 0.541481 17.7486 0.951408 17.7486 1.77562C17.7486 2.21607 17.5946 2.53878 17.2866 2.73938C16.9786 2.93999 16.5783 3.04029 16.0811 3.04029H15.4915V4.8021H14.7304V4.79774ZM15.4959 2.39923H16.0283C16.6619 2.39923 16.9786 2.18991 16.9786 1.77562C16.9786 1.54885 16.895 1.39186 16.7278 1.309C16.5607 1.22615 16.3363 1.18254 16.0503 1.18254H15.4915V2.39923H15.4959Z" fill="#00FEFF"/>
<path d="M19.6405 4.79774V0.541481H20.406V4.12179H22.2319V4.79338H19.6405V4.79774Z" fill="#00FEFF"/>
<path d="M23.9522 4.79774V0.541481H26.7945V1.20434H24.7134V2.28585H26.6845V2.92254H24.7134V4.12616H26.9045V4.79774H23.9522Z" fill="#00FEFF"/>
<path d="M31.5946 4.79774V0.541481H32.9937C34.0717 0.541481 34.6128 0.951408 34.6128 1.77562C34.6128 2.21607 34.4588 2.53878 34.1509 2.73938C33.8429 2.93999 33.4425 3.04029 32.9453 3.04029H32.3558V4.8021H31.5946V4.79774ZM32.3602 2.39923H32.8925C33.5261 2.39923 33.8429 2.18991 33.8429 1.77562C33.8429 1.54885 33.7593 1.39186 33.5921 1.309C33.4249 1.22615 33.2005 1.18254 32.9145 1.18254H32.3558V2.39923H32.3602Z" fill="#00FEFF"/>
<path d="M36.2979 2.65653C36.2979 1.98495 36.5135 1.4442 36.9447 1.03863C37.3759 0.633067 37.9258 0.432465 38.599 0.432465C39.2766 0.432465 39.8353 0.633067 40.2665 1.03863C40.6977 1.4442 40.9177 1.98059 40.9177 2.65653C40.9177 3.31939 40.7021 3.85579 40.2665 4.27444C39.8309 4.69308 39.2766 4.90241 38.6034 4.90241C37.9346 4.90241 37.3847 4.69308 36.9535 4.27444C36.5179 3.86015 36.2979 3.31939 36.2979 2.65653ZM37.1295 2.65653C37.1295 3.11443 37.2659 3.48947 37.5431 3.78165C37.8159 4.0782 38.1722 4.22211 38.6034 4.22211C39.039 4.22211 39.3954 4.07383 39.6725 3.78165C39.9453 3.48511 40.0861 3.11007 40.0861 2.65653C40.0861 2.21172 39.9497 1.84104 39.6769 1.5445C39.4042 1.24796 39.0478 1.09969 38.6078 1.09969C38.1722 1.09969 37.8159 1.24796 37.5431 1.5445C37.2659 1.84104 37.1295 2.21172 37.1295 2.65653Z" fill="#00FEFF"/>
<path d="M43.6851 4.79774L42.4312 0.541481H43.2671L44.0987 3.66826H44.1119L45.0578 0.541481H45.8454L46.7737 3.66826H46.7869L47.6361 0.541481H48.45L47.1961 4.79774H46.457L45.4494 1.60555H45.4362L44.4287 4.79774H43.6851V4.79774Z" fill="#00FEFF"/>
<path d="M50.1703 4.79774V0.541481H53.0126V1.20434H50.9315V2.28585H52.9026V2.92254H50.9315V4.12616H53.1226V4.79774H50.1703Z" fill="#00FEFF"/>
<path d="M55.0805 4.79774V0.541481H56.572C56.858 0.541481 57.1175 0.58073 57.3463 0.654866C57.5751 0.729001 57.7687 0.859827 57.9227 1.05171C58.0767 1.24359 58.1559 1.47908 58.1559 1.76254C58.1559 2.06344 58.0679 2.31201 57.8963 2.51262C57.7203 2.70886 57.4827 2.84405 57.1747 2.91382L58.3187 4.8021H57.3947L56.4004 3.00104H55.8416V4.8021H55.0805V4.79774ZM55.846 2.37307H56.4708C57.0867 2.37307 57.3947 2.1681 57.3947 1.75382C57.3947 1.54449 57.3111 1.39622 57.1439 1.309C56.9768 1.22179 56.7744 1.17817 56.5368 1.17817H55.846V2.37307Z" fill="#00FEFF"/>
<path d="M62.6304 2.65653C62.6304 1.98495 62.846 1.4442 63.2772 1.03863C63.7084 0.633067 64.2583 0.432465 64.9315 0.432465C65.6091 0.432465 66.1678 0.633067 66.599 1.03863C67.0302 1.4442 67.2502 1.98059 67.2502 2.65653C67.2502 3.31939 67.0346 3.85579 66.599 4.27444C66.1634 4.69308 65.6091 4.90241 64.9359 4.90241C64.2671 4.90241 63.7172 4.69308 63.286 4.27444C62.846 3.86015 62.6304 3.31939 62.6304 2.65653ZM63.462 2.65653C63.462 3.11443 63.5984 3.48947 63.8756 3.78165C64.1483 4.0782 64.5047 4.22211 64.9359 4.22211C65.3715 4.22211 65.7279 4.07383 66.005 3.78165C66.2778 3.48511 66.4186 3.11007 66.4186 2.65653C66.4186 2.21172 66.2822 1.84104 66.0094 1.5445C65.7366 1.24796 65.3803 1.09969 64.9403 1.09969C64.5047 1.09969 64.1483 1.24796 63.8756 1.5445C63.5984 1.84104 63.462 2.21172 63.462 2.65653Z" fill="#00FEFF"/>
<path d="M69.1993 4.79774V0.541481H71.9711V1.20434H69.9648V2.36871H71.8567V3.0054H69.9648V4.79774H69.1993V4.79774Z" fill="#00FEFF"/>
<path d="M76.6128 4.79774V0.541481H77.3784V2.38179H77.396L79.1911 0.541481H80.2206L78.2143 2.50826L80.357 4.79774H79.2835L77.396 2.66525H77.3784V4.79774H76.6128Z" fill="#00FEFF"/>
<path d="M82.0069 4.79774V0.541481H83.0189L85.0119 3.72931H85.0251V0.541481H85.7907V4.79774H84.8184L82.7813 1.50961H82.7681V4.79774H82.0069Z" fill="#00FEFF"/>
<path d="M87.7398 2.65653C87.7398 1.98495 87.9554 1.4442 88.3866 1.03863C88.8177 0.633067 89.3677 0.432465 90.0409 0.432465C90.7184 0.432465 91.2772 0.633067 91.7084 1.03863C92.1396 1.4442 92.3595 1.98059 92.3595 2.65653C92.3595 3.31939 92.144 3.85579 91.7084 4.27444C91.2728 4.69308 90.7184 4.90241 90.0453 4.90241C89.3765 4.90241 88.8265 4.69308 88.3954 4.27444C87.9598 3.86015 87.7398 3.31939 87.7398 2.65653ZM88.5714 2.65653C88.5714 3.11443 88.7077 3.48947 88.9849 3.78165C89.2577 4.0782 89.6141 4.22211 90.0453 4.22211C90.4808 4.22211 90.8372 4.07383 91.1144 3.78165C91.3872 3.48511 91.528 3.11007 91.528 2.65653C91.528 2.21172 91.3916 1.84104 91.1188 1.5445C90.846 1.24796 90.4896 1.09969 90.0497 1.09969C89.6141 1.09969 89.2577 1.24796 88.9849 1.5445C88.7077 1.84104 88.5714 2.21172 88.5714 2.65653Z" fill="#00FEFF"/>
<path d="M95.127 4.79774L93.873 0.541481H94.709L95.5405 3.66826H95.5537L96.4997 0.541481H97.2873L98.2156 3.66826H98.2288L99.078 0.541481H99.8919L98.638 4.79774H97.8988L96.8913 1.60555H96.8781L95.8705 4.79774H95.127V4.79774Z" fill="#00FEFF"/>
<path d="M101.612 4.79774V0.541481H102.378V4.12179H104.204V4.79338H101.612V4.79774Z" fill="#00FEFF"/>
<path d="M105.924 4.79774V0.541481H108.766V1.20434H106.685V2.28585H108.656V2.92254H106.685V4.12616H108.876V4.79774H105.924Z" fill="#00FEFF"/>
<path d="M110.834 4.79774V0.541481H112.356C112.656 0.541481 112.937 0.58073 113.206 0.654866C113.474 0.729001 113.725 0.846744 113.958 1.00374C114.191 1.16073 114.38 1.38314 114.521 1.67096C114.662 1.95878 114.728 2.29021 114.728 2.66961C114.728 3.0272 114.657 3.34555 114.521 3.62465C114.38 3.90375 114.196 4.13052 113.962 4.29623C113.729 4.46195 113.478 4.58841 113.206 4.67127C112.933 4.75413 112.651 4.79774 112.361 4.79774H110.834V4.79774ZM111.6 4.13488H112.238C112.405 4.13488 112.563 4.1218 112.713 4.09127C112.862 4.0651 113.016 4.01277 113.166 3.943C113.316 3.87322 113.443 3.78601 113.553 3.67698C113.659 3.57232 113.747 3.42841 113.813 3.25833C113.879 3.0839 113.914 2.88766 113.914 2.66525C113.914 1.67968 113.355 1.1869 112.242 1.1869H111.604V4.13488H111.6Z" fill="#00FEFF"/>
<path d="M120.439 2.3687V4.57533C119.972 4.79773 119.436 4.90676 118.82 4.90676C118.129 4.90676 117.566 4.69743 117.126 4.28314C116.69 3.8645 116.47 3.32374 116.47 2.66088C116.47 1.99366 116.69 1.45291 117.13 1.04734C117.57 0.641777 118.124 0.436813 118.802 0.436813C119.132 0.436813 119.444 0.484781 119.735 0.580721C120.025 0.676661 120.258 0.80749 120.434 0.973205L119.906 1.54013C119.792 1.41802 119.638 1.31336 119.44 1.2305C119.242 1.14764 119.031 1.1084 118.811 1.1084C118.366 1.1084 118.006 1.25667 117.733 1.55321C117.46 1.84975 117.319 2.22043 117.319 2.66524C117.319 3.1275 117.456 3.50254 117.733 3.79472C118.01 4.0869 118.38 4.23517 118.846 4.23517C119.172 4.23517 119.458 4.1872 119.7 4.0869V3.0054H118.798V2.38178H120.439V2.3687Z" fill="#00FEFF"/>
<path d="M122.581 4.79774V0.541481H125.424V1.20434H123.343V2.28585H125.314V2.92254H123.343V4.12616H125.534V4.79774H122.581Z" fill="#00FEFF"/>
</svg>
